# xmcd CD database file
#
# Track frame offsets:
#	150
#	18765
#	37425
#	58141
#	78668
#	99321
#	117370
#	137460
#	155466
#	174552
#	191160
#	209667
#	227102
#	246034
#
# Disc length: 3525 seconds
#
# Revision: 4
# Processed by: cddbd v1.5.2PL0 Copyright (c) Steve Scherf et al.
# Submitted via: CDex 1.70beta2
#
DISCID=c40dc30e
DTITLE=Avant - Ecstasy
DYEAR=2002
DGENRE=R&B
TTITLE0=Call On Me
TTITLE1=What Do You Want
TTITLE2=Don't Say No, Just Say Yes
TTITLE3=Makin' Good Love
TTITLE4=Sorry
TTITLE5=No Limit
TTITLE6=Thnkin' About You
TTITLE7=Six In Da Morning
TTITLE8=You Ain't Right
TTITLE9=One Way Street
TTITLE10=Love School
TTITLE11=Jack and Jill
TTITLE12=Suicide
TTITLE13=Makin' Good Love (Thug Love Remix)
EXTD=Call On Me\n YEAR: 2002
EXTT0=\n
EXTT1=
EXTT2=
EXTT3=
EXTT4=
EXTT5=
EXTT6=
EXTT7=
EXTT8=
EXTT9=
EXTT10=
EXTT11=
EXTT12=
EXTT13=
PLAYORDER=
